<?xml version="1.0" encoding="utf-8"?>
<!-- Generator: Adobe Illustrator 19.1.0, SVG Export Plug-In . SVG Version: 6.00 Build 0)  -->
<svg version="1.1" id="Lag_1" xmlns="http://www.w3.org/2000/svg" xmlns:xlink="http://www.w3.org/1999/xlink" x="0px" y="0px"
	 viewBox="-506 287 267 227" style="enable-background:new -506 287 267 227;" xml:space="preserve">
<style type="text/css">
	.st0{fill:#919395;}
	.st1{font-family:'ArialMT';}
	.st2{font-size:32px;}
	.st3{fill:url(#SVGID_1_);}
	.st4{fill:#FFFFFF;}
	.st5{fill:url(#SVGID_2_);}
</style>
<g id="logo__item--business">
	<g transform="translate(745.7421875 623.026166229503) scale(1 1) rotate(0 0 0)">
		<text transform="matrix(1 0 0 1 -1240.6921 -115.3687)" class="st0 st1 st2">Biograf Portalen</text>
	</g>
</g>
<g id="logo__item--logo_0">
	<g transform="translate(743.404891969373 379.5) scale(2.4647257210984352 2.4647257210984352) rotate(0 0 0)">
		<g>
			<g>
				
					<radialGradient id="SVGID_1_" cx="-738.9763" cy="166.1254" r="92.1933" gradientTransform="matrix(2.4647 0 0 -2.4647 1344.8114 421.9057)" gradientUnits="userSpaceOnUse">
					<stop  offset="0" style="stop-color:#919395"/>
					<stop  offset="0.6727" style="stop-color:#424243"/>
					<stop  offset="1" style="stop-color:#272525"/>
				</radialGradient>
				<path class="st3" d="M-447.3-35.4c0.3,0.3,0.7,0.6,1,0.9c0,0,0,0,0,0c2,1.8,3.7,3.6,5.2,5.3c0,0,0,0,0,0
					c0.2,0.3,0.5,0.6,0.7,0.8c0,0,0,0.1,0.1,0.1c0.2,0.3,0.4,0.5,0.6,0.8c0,0,0,0.1,0.1,0.1c0.2,0.3,0.4,0.5,0.6,0.8c0,0,0,0,0,0.1
					c0.8,1.1,1.5,2.3,2.2,3.4c0,0,0,0.1,0.1,0.1c0.1,0.2,0.2,0.4,0.4,0.7c0,0.1,0.1,0.1,0.1,0.2c0.1,0.2,0.2,0.4,0.3,0.6
					c0,0,0,0.1,0.1,0.1c-12.5,6.4-62.7,34.8-18.9,58.9C-454.9,37.5-536.1,19-447.3-35.4C-447.4-35.4-447.3-35.4-447.3-35.4z"/>
				<g>
					<polygon class="st4" points="-440.4,-21.2 -441.1,-20.8 -441.8,-20.5 -443.2,-19.8 -444.3,-21.7 -442.9,-22.5 -442.2,-22.9 
						-441.5,-23.3 					"/>
					<polygon class="st4" points="-446.9,-17.7 -448.2,-16.9 -449.6,-16.1 -450.6,-17.7 -449.3,-18.6 -448,-19.5 					"/>
					<path class="st4" d="M-453.1-13.7c-0.9,0.6-1.7,1.2-2.6,1.8l-1.1-1.4c0.8-0.6,1.7-1.3,2.5-1.9L-453.1-13.7z"/>
					<path class="st4" d="M-459.1-9.3c-0.8,0.7-1.6,1.3-2.4,2l-1-1.1c0.8-0.7,1.6-1.4,2.4-2.1L-459.1-9.3z"/>
					<path class="st4" d="M-464.6-4.4c-0.4,0.4-0.7,0.7-1.1,1.1c-0.4,0.4-0.7,0.7-1.1,1.1l-1-0.8c0.3-0.4,0.7-0.8,1-1.2
						c0.4-0.4,0.7-0.8,1.1-1.2L-464.6-4.4z"/>
					<path class="st4" d="M-469.5,1.1c-0.3,0.4-0.6,0.8-0.9,1.3c-0.3,0.4-0.6,0.9-0.9,1.3l-0.9-0.5c0.3-0.5,0.6-0.9,0.8-1.4
						c0.3-0.5,0.6-0.9,0.9-1.3L-469.5,1.1z"/>
					<path class="st4" d="M-473.3,7.4c-0.2,0.5-0.4,0.9-0.6,1.4c-0.2,0.5-0.4,1-0.5,1.5l-0.7-0.2c0.1-0.5,0.3-1,0.5-1.5
						c0.2-0.5,0.4-1,0.6-1.5L-473.3,7.4z"/>
					<path class="st4" d="M-475.2,14.4c-0.1,0.5-0.1,1-0.1,1.5c0,0.5,0,1.1,0,1.6l-0.5,0c0-0.5,0-1,0-1.6c0-0.5,0-1.1,0-1.6
						L-475.2,14.4z"/>
					<path class="st4" d="M-474.8,21.7c0.2,0.5,0.4,1,0.6,1.4c0.2,0.5,0.5,0.9,0.8,1.4l-0.2,0.2c-0.3-0.4-0.6-0.9-0.8-1.4
						c-0.3-0.5-0.5-0.9-0.7-1.4L-474.8,21.7z"/>
					<path class="st4" d="M-471,28.1c0.6,0.8,1.3,1.7,1.9,2.5l0,0c-0.7-0.8-1.3-1.6-2-2.4L-471,28.1z"/>
				</g>
				<g>
					<polygon class="st4" points="-448,-30.9 -449.3,-30 -450.6,-29.2 -451.9,-31.1 -450.6,-32 -449.2,-32.9 					"/>
					<path class="st4" d="M-454.2-26.8c-0.9,0.6-1.7,1.2-2.6,1.8l-1.2-1.7c0.8-0.6,1.7-1.3,2.5-1.9L-454.2-26.8z"/>
					<path class="st4" d="M-460.2-22.5c-0.9,0.6-1.7,1.3-2.5,1.9l-1.2-1.5c0.8-0.7,1.6-1.3,2.5-2L-460.2-22.5z"/>
					<path class="st4" d="M-466.1-17.9c-0.8,0.7-1.6,1.3-2.4,2l-1.1-1.2c0.8-0.7,1.6-1.4,2.4-2.1L-466.1-17.9z"/>
					<path class="st4" d="M-471.7-13c-0.8,0.7-1.5,1.4-2.3,2.1l-1-1c0.7-0.8,1.5-1.5,2.2-2.2L-471.7-13z"/>
					<path class="st4" d="M-477-7.8c-0.7,0.8-1.4,1.5-2.1,2.3l-1-0.8c0.7-0.8,1.3-1.6,2-2.4L-477-7.8z"/>
					<path class="st4" d="M-481.7-2.1c-0.3,0.4-0.6,0.8-0.9,1.3c-0.3,0.4-0.6,0.9-0.8,1.3l-0.9-0.5c0.3-0.5,0.5-0.9,0.8-1.4
						c0.3-0.4,0.6-0.9,0.9-1.3L-481.7-2.1z"/>
					<path class="st4" d="M-485.4,4.2c-0.2,0.5-0.4,1-0.6,1.4s-0.3,1-0.4,1.5l-0.8-0.2c0.1-0.5,0.3-1,0.4-1.5c0.2-0.5,0.3-1,0.5-1.5
						L-485.4,4.2z"/>
					<path class="st4" d="M-486.8,11.3c0,0.3,0,0.5,0.1,0.8c0,0.3,0.1,0.5,0.1,0.8c0.1,0.5,0.2,1,0.3,1.5l-0.6,0.2
						c-0.1-0.5-0.3-1-0.4-1.5c-0.1-0.3-0.1-0.5-0.1-0.8c0-0.3-0.1-0.5-0.1-0.8L-486.8,11.3z"/>
					<path class="st4" d="M-484.8,18.3c0.2,0.5,0.5,0.9,0.8,1.3c0.3,0.4,0.6,0.9,0.9,1.3l-0.3,0.3c-0.3-0.4-0.6-0.8-0.9-1.3
						c-0.3-0.4-0.6-0.9-0.8-1.4L-484.8,18.3z"/>
					<path class="st4" d="M-480.4,24.2c0.7,0.7,1.5,1.4,2.3,2.1l-0.1,0.2c-0.8-0.6-1.6-1.3-2.4-2L-480.4,24.2z"/>
					<path class="st4" d="M-474.6,28.8c0.8,0.6,1.6,1.1,2.5,1.6C-473,30-473.8,29.4-474.6,28.8L-474.6,28.8z"/>
				</g>
				<path class="st4" d="M-480.1,22.8c-0.4-0.6-0.8-1.2-1.1-1.9c-0.2-0.4-0.4-0.9-0.6-1.3l3.5-1.3c0.1,0.3,0.2,0.6,0.4,0.9
					c0.2,0.5,0.5,0.9,0.8,1.4L-480.1,22.8z"/>
				<path class="st4" d="M-478.8,13.4l-5.3,0.5c-0.2-2.2,0.1-4.6,0.8-7l5.1,1.6C-478.7,10.2-478.9,11.9-478.8,13.4z"/>
				<path class="st4" d="M-475.7,3.5l-5.1-2.9c1.1-1.9,2.5-3.9,4.1-5.9l4.6,3.7C-473.5,0.2-474.7,1.9-475.7,3.5z"/>
				<path class="st4" d="M-468.4-5.8l-4.2-4.1c1.5-1.6,3.2-3.2,5-4.7l3.9,4.4C-465.4-8.7-467-7.2-468.4-5.8z"/>
				<path class="st4" d="M-443.7-24.4c0,0-2.2,1.3-5.5,3.4l-3.2-4.9c3.5-2.2,5.8-3.5,5.9-3.6L-443.7-24.4z"/>
				<path class="st4" d="M-459.3-13.9l-3.6-4.6c1.7-1.4,3.6-2.7,5.5-4.1l3.4,4.8C-455.8-16.5-457.6-15.2-459.3-13.9z"/>
			</g>
			<g>
				
					<radialGradient id="SVGID_2_" cx="-719.5687" cy="177.3837" r="43.8387" gradientTransform="matrix(2.4647 0 0 -2.4647 1344.8114 421.9057)" gradientUnits="userSpaceOnUse">
					<stop  offset="0" style="stop-color:#5BA59B"/>
					<stop  offset="1" style="stop-color:#1C433F"/>
				</radialGradient>
				<path class="st5" d="M-457,34.9c-0.3-0.3-0.7-0.6-1-0.9c0,0,0,0,0,0c-2-1.8-3.7-3.6-5.2-5.3c0,0,0,0,0,0
					c-0.2-0.3-0.5-0.5-0.7-0.8c0,0,0-0.1-0.1-0.1c-0.2-0.3-0.4-0.5-0.6-0.8c0,0,0-0.1-0.1-0.1c-0.2-0.3-0.4-0.5-0.6-0.8
					c0,0,0,0,0-0.1c-0.8-1.1-1.6-2.3-2.2-3.4c0,0,0-0.1-0.1-0.1c-0.1-0.2-0.2-0.4-0.4-0.7c0-0.1-0.1-0.1-0.1-0.2
					c-0.1-0.2-0.2-0.4-0.3-0.6c0,0,0-0.1,0-0.1c12.5-6.4,62.7-34.8,18.9-58.9C-449.4-38-368.2-19.6-457,34.9
					C-457,34.9-457,34.9-457,34.9z"/>
				<g>
					<polygon class="st4" points="-463.9,20.6 -463.2,20.3 -462.5,20 -461.2,19.2 -460.1,21.2 -461.4,22 -462.1,22.4 -462.9,22.8 
											"/>
					<polygon class="st4" points="-457.4,17.1 -456.1,16.4 -454.8,15.5 -453.7,17.2 -455,18.1 -456.3,19 					"/>
					<path class="st4" d="M-451.2,13.2c0.9-0.6,1.7-1.2,2.6-1.8l1.1,1.4c-0.8,0.6-1.7,1.3-2.5,1.9L-451.2,13.2z"/>
					<path class="st4" d="M-445.2,8.8c0.8-0.7,1.6-1.3,2.4-2l1,1.1c-0.8,0.7-1.6,1.4-2.4,2.1L-445.2,8.8z"/>
					<path class="st4" d="M-439.7,3.9c0.4-0.4,0.7-0.7,1.1-1.1c0.4-0.4,0.7-0.8,1.1-1.1l1,0.8c-0.3,0.4-0.7,0.8-1,1.2
						c-0.4,0.4-0.7,0.8-1.1,1.2L-439.7,3.9z"/>
					<path class="st4" d="M-434.8-1.6c0.3-0.4,0.6-0.8,0.9-1.3c0.3-0.4,0.6-0.9,0.9-1.3l0.9,0.5c-0.3,0.5-0.5,0.9-0.8,1.4
						c-0.3,0.4-0.6,0.9-0.9,1.3L-434.8-1.6z"/>
					<path class="st4" d="M-431-7.9c0.2-0.5,0.4-0.9,0.6-1.4c0.2-0.5,0.3-1,0.5-1.5l0.8,0.2c-0.1,0.5-0.3,1-0.5,1.5
						c-0.2,0.5-0.4,1-0.6,1.5L-431-7.9z"/>
					<path class="st4" d="M-429.1-15c0-0.5,0.1-1,0.1-1.5c0-0.5,0-1.1,0-1.6l0.5,0c0,0.5,0,1,0,1.6c0,0.5,0,1.1,0,1.6L-429.1-15z"/>
					<path class="st4" d="M-429.5-22.3c-0.2-0.5-0.4-1-0.6-1.4c-0.2-0.5-0.5-0.9-0.8-1.4l0.3-0.2c0.3,0.4,0.6,0.9,0.8,1.4
						c0.3,0.5,0.5,0.9,0.7,1.4L-429.5-22.3z"/>
					<path class="st4" d="M-433.3-28.6c-0.6-0.8-1.3-1.7-1.9-2.5l0,0c0.7,0.8,1.3,1.6,2,2.4L-433.3-28.6z"/>
				</g>
				<g>
					<polygon class="st4" points="-456.3,30.3 -455,29.5 -453.7,28.7 -452.4,30.6 -453.7,31.4 -455.1,32.3 					"/>
					<path class="st4" d="M-450.1,26.3c0.9-0.6,1.7-1.2,2.6-1.8l1.2,1.7c-0.8,0.6-1.7,1.3-2.5,1.9L-450.1,26.3z"/>
					<path class="st4" d="M-444.1,22c0.9-0.6,1.7-1.3,2.5-1.9l1.2,1.5c-0.8,0.7-1.7,1.3-2.5,2L-444.1,22z"/>
					<path class="st4" d="M-438.2,17.4c0.8-0.7,1.6-1.3,2.4-2l1.1,1.2c-0.8,0.7-1.6,1.4-2.4,2.1L-438.2,17.4z"/>
					<path class="st4" d="M-432.6,12.5c0.8-0.7,1.5-1.4,2.3-2.1l1,1c-0.7,0.8-1.5,1.5-2.2,2.2L-432.6,12.5z"/>
					<path class="st4" d="M-427.4,7.3c0.7-0.8,1.4-1.5,2.1-2.3l1,0.8c-0.7,0.8-1.4,1.6-2,2.4L-427.4,7.3z"/>
					<path class="st4" d="M-422.6,1.6c0.3-0.4,0.6-0.8,0.9-1.3c0.3-0.4,0.6-0.9,0.8-1.3l0.9,0.5c-0.3,0.5-0.5,0.9-0.8,1.4
						c-0.3,0.4-0.6,0.9-0.9,1.3L-422.6,1.6z"/>
					<path class="st4" d="M-419-4.7c0.2-0.5,0.4-1,0.6-1.4c0.2-0.5,0.3-1,0.4-1.5l0.8,0.2c-0.1,0.5-0.3,1-0.4,1.5
						c-0.2,0.5-0.3,1-0.5,1.5L-419-4.7z"/>
					<path class="st4" d="M-417.5-11.8c0-0.3,0-0.5-0.1-0.8c0-0.3-0.1-0.5-0.1-0.7c-0.1-0.5-0.2-1-0.3-1.5l0.6-0.2
						c0.1,0.5,0.3,1,0.4,1.5c0.1,0.3,0.1,0.5,0.1,0.8c0,0.3,0.1,0.5,0.1,0.8L-417.5-11.8z"/>
					<path class="st4" d="M-419.5-18.8c-0.2-0.5-0.5-0.9-0.8-1.4c-0.3-0.4-0.6-0.9-0.9-1.3l0.3-0.3c0.3,0.4,0.6,0.9,0.9,1.3
						c0.3,0.4,0.6,0.9,0.8,1.4L-419.5-18.8z"/>
					<path class="st4" d="M-423.9-24.7c-0.8-0.7-1.5-1.4-2.3-2.1l0.1-0.2c0.8,0.6,1.6,1.3,2.4,2L-423.9-24.7z"/>
					<path class="st4" d="M-429.7-29.3c-0.8-0.6-1.6-1.1-2.5-1.6C-431.3-30.5-430.5-30-429.7-29.3L-429.7-29.3z"/>
				</g>
				<path class="st4" d="M-424.2-23.3c0.4,0.6,0.8,1.2,1.1,1.9c0.2,0.4,0.4,0.9,0.6,1.3l-3.5,1.3c-0.1-0.3-0.2-0.6-0.4-0.9
					c-0.2-0.5-0.5-0.9-0.8-1.4L-424.2-23.3z"/>
				<path class="st4" d="M-425.5-13.9l5.3-0.5c0.2,2.2-0.1,4.6-0.8,7l-5.1-1.6C-425.6-10.7-425.4-12.4-425.5-13.9z"/>
				<path class="st4" d="M-428.6-4l5.1,2.9c-1.1,1.9-2.5,3.9-4.1,5.9l-4.6-3.7C-430.8-0.7-429.6-2.4-428.6-4z"/>
				<path class="st4" d="M-435.9,5.3l4.2,4.1c-1.5,1.6-3.2,3.2-5,4.7l-3.9-4.4C-438.9,8.2-437.4,6.7-435.9,5.3z"/>
				<path class="st4" d="M-460.6,23.9c0,0,2.3-1.3,5.5-3.4l3.2,4.9c-3.5,2.2-5.8,3.5-5.9,3.6L-460.6,23.9z"/>
				<path class="st4" d="M-445.1,13.3l3.6,4.6c-1.7,1.4-3.6,2.7-5.5,4.1l-3.4-4.8C-448.5,16-446.7,14.7-445.1,13.3z"/>
			</g>
		</g>
	</g>
</g>
</svg>
